<?xml version="1.0" encoding="UTF-8"?>
<svg id="Layer_2" data-name="Layer 2" xmlns="http://www.w3.org/2000/svg" viewBox="0 0 262.49 263.1">
  <defs>
    <style>
      .cls-1 {
        fill: #2e5802;
      }
    </style>
  </defs>
  <g id="Layer_1-2" data-name="Layer 1">
    <g>
      <path class="cls-1" d="m22.9,136.18c22.71-37.78,40.12-77.65,57.85-117.92,2.65-6.03,1.76-13.1-4.38-16.7-5.18-3.03-14.03-1.69-16.7,4.38C41.95,46.21,24.54,86.08,1.82,123.86c-8.11,13.5,12.98,25.78,21.08,12.32h0Z"/>
      <path class="cls-1" d="m55.01,188.79c14.91.33,29.95-3.4,43.97-8.18,17.51-5.97,34.42-13.85,50.66-22.67,31.57-17.15,62.63-38.17,87.81-63.97,10.07-10.32,20.55-22.43,24.53-36.63,4.24-15.15-19.3-21.62-23.54-6.49-.29,1.04-.67,2.03-1,3.05-.3.94-1.22,2.07.39-.9-.31.57-.54,1.19-.84,1.77-1.24,2.34-2.54,4.61-4.02,6.81-.74,1.1-1.51,2.17-2.28,3.24-.38.52-2.18,2.72-.11.18-.36.44-.71.9-1.07,1.34-2.15,2.57-4.33,5.11-6.62,7.56-5.19,5.55-10.73,10.77-16.45,15.76-6.11,5.33-12.48,10.42-17.43,14.12-14.37,10.75-29.46,20.56-45.07,29.42-7.95,4.51-16.04,8.76-24.28,12.7s-12.49,5.81-20.88,8.94c-7.91,2.96-15.99,5.53-24.24,7.39-2.02.45-4.05.86-6.09,1.22-.76.13-1.52.24-2.28.37-2.58.46,2.51-.21-.76.09-3.47.32-6.91.56-10.39.48-15.71-.35-15.71,24.06,0,24.41h0Z"/>
      <path class="cls-1" d="m64.35,248.82c53.02,22.48,115.16,17.54,166.18-8.53,7.98-4.08,15.74-8.83,21.22-16.03,4-5.25.82-13.66-4.38-16.7-6.27-3.67-12.69-.88-16.7,4.38,2.97-3.9-.38-.17-1.38.8,2.88-2.79-1.24.81-2.34,1.51-4.23,2.72-8.71,5.04-13.26,7.17-1.45.68-2.9,1.33-4.37,1.97,1.64-.71-2.58,1.05-2.99,1.21-2.98,1.18-5.99,2.28-9.02,3.31-7.18,2.45-14.48,4.52-21.87,6.21-32.65,7.47-67.61,6.83-98.77-6.38-6.06-2.57-13.07-1.82-16.7,4.38-3,5.12-1.72,14.11,4.38,16.7h0Z"/>
    </g>
  </g>
</svg>