<?xml version="1.0" encoding="UTF-8"?>
<svg id="Layer_2" data-name="Layer 2" xmlns="http://www.w3.org/2000/svg" xmlns:xlink="http://www.w3.org/1999/xlink" viewBox="0 0 1225.17 738.15">
  <defs>
    <style>
      .cls-1 {
        fill: url(#_ÂÁ_Ï_ÌÌ_È_ËÂÌÚ_46);
      }

      .cls-2 {
        fill: #002b69;
      }

      .cls-3 {
        fill: #002047;
      }

      .cls-4 {
        fill: #681f46;
      }

      .cls-5 {
        fill: #fff;
      }

      .cls-6 {
        fill: #316da8;
      }

      .cls-7 {
        fill: #2f729b;
      }

      .cls-8 {
        fill: #d2fbff;
      }

      .cls-9 {
        fill: #174b72;
      }

      .cls-10 {
        fill: #20668c;
      }

      .cls-11 {
        fill: #4491b7;
      }

      .cls-12 {
        fill: #6bc2d1;
      }

      .cls-13 {
        fill: #87d0d8;
      }

      .cls-14 {
        fill: url(#_ÂÁ_Ï_ÌÌ_È_ËÂÌÚ_46-2);
      }

      .cls-15 {
        fill: #a4eff7;
        opacity: .88;
      }

      .cls-16 {
        fill: #2a889e;
        opacity: .47;
      }
    </style>
    <linearGradient id="_ÂÁ_Ï_ÌÌ_È_ËÂÌÚ_46" data-name="¡ÂÁ˚ÏˇÌÌ˚È „‡‰ËÂÌÚ 46" x1="705.26" y1="495.62" x2="705.26" y2="328.39" gradientUnits="userSpaceOnUse">
      <stop offset="0" stop-color="#6bc2d1"/>
      <stop offset=".16" stop-color="#87d1dd"/>
      <stop offset=".38" stop-color="#a7e3ec"/>
      <stop offset=".59" stop-color="#bff0f6"/>
      <stop offset=".79" stop-color="#cdf8fc"/>
      <stop offset=".97" stop-color="#d2fbff"/>
    </linearGradient>
    <linearGradient id="_ÂÁ_Ï_ÌÌ_È_ËÂÌÚ_46-2" data-name="¡ÂÁ˚ÏˇÌÌ˚È „‡‰ËÂÌÚ 46" x1="672.56" y1="404.69" x2="672.56" y2="288.11" xlink:href="#_ÂÁ_Ï_ÌÌ_È_ËÂÌÚ_46"/>
  </defs>
  <g id="_ÎÓÈ_1" data-name="—ÎÓÈ_1">
    <g>
      <g id="H">
        <path class="cls-5" d="m437.14,424.51l-10.49-26.81-244.82,221.5-64.12,44.3L0,738.15h435.97c42.08-53.25,79.28-100.31,79.28-100.31l-78.11-213.34Z"/>
        <path class="cls-5" d="m701.78,153.53l-5.83,24.93-33.81,21.04,11.66,10.49,5.93,29.41,22.05.9,16.37-6s12.77-32.47,15.1-34.8-6.99-45.97-6.99-45.97h-24.48Z"/>
        <polygon class="cls-12" points="662.14 199.51 660.97 219.91 685.45 240.31 701.78 240.31 695.95 204.17 662.14 199.51"/>
        <polygon class="cls-5" points="645.82 210 628.33 223.99 641.15 236.81 678.46 270.62 695.95 247.6 683.12 210 645.82 210"/>
        <path class="cls-12" d="m628.33,223.99s-1.17,16.32,0,19.82l32.64,27.4,17.49-.58-5.47-46.63h-44.66Z"/>
        <polygon class="cls-5" points="607.35 229.82 558.38 264.79 578.2 293.94 678.46 312.59 678.46 277.62 660.97 235.65 607.35 229.82"/>
        <polygon class="cls-12" points="558.38 264.79 566.54 325.41 672.99 300.93 639.99 258.96 558.38 264.79"/>
        <polygon class="cls-6" points="576.96 289.57 585.12 350.19 653.14 325.41 644.58 286.65 576.96 289.57"/>
        <polygon class="cls-6" points="566.54 273.54 574.7 334.16 662.14 315.49 634.16 270.62 566.54 273.54"/>
        <polygon class="cls-13" points="576.17 283.68 535.48 344.3 639.27 302.39 633.45 278.41 576.17 283.68"/>
        <path class="cls-12" d="m1064.5,372.67l-19.67,4.91-80.14-3.99h-120.44l-77.6-30.18-59.19-5.86-61.64-37.38-17.49-3.41-63.35,17.01-38.07,53.24,10.64,114.04,169.91,72.99,33.95,19.69,5.83-12.66,116.58-48.77,4.37,20.71,30.04-.08,45.88-16.91,58.51-6.7s67.54-2.29,70.6-9.64c3.06-7.35,36.54-16.35,57.71-23.75,21.17-7.4,21.82-15.46,27.38-25.77,5.56-10.31,2.39-72.58,2.39-72.58l-96.2-4.91Z"/>
        <path class="cls-6" d="m868.19,355.82l-10.14,11.19h-18.68l-7.02,93.34s17.38,72.46,16.77,72.66,12.83-.08,12.83-.08l1.87,11.08,19.94-6.41,2.39-46.49-2.39-112.54-15.56-22.74Z"/>
        <path class="cls-12" d="m458.73,424.51l-32.08-26.81-11.66,52.46s21.59,122.41,21.87,124.74c.28,2.33,78.39,67.62,78.39,62.95s-19.82-119.96-19.82-119.96l-36.7-93.38Z"/>
        <path class="cls-6" d="m430.78,422.03l-9.38,28.12,25.61,121.59,54.57,40.55,25.33-44.39c-2.33-4.66-31.48-176.03-31.48-176.03l-64.65,30.17Z"/>
        <path class="cls-8" d="m524.58,325.41l-29.14-6.99-24.48,68.56,6.99,78.32s167.87-18.65,167.87-24.48v-39.64l-75.19-47.8-46.05-27.98Z"/>
        <path class="cls-8" d="m747.24,450.15l-13.62,62.14s7.04,59.18,7.79,61.43c1.17,3.5,78.11-6.99,78.11-6.99l36.14-24.48v-73.44l-54.21,23.32-54.21-41.97Z"/>
        <path class="cls-1" d="m707.46,368.55l-33.77,37.31s-2.23,47.8-4.56,49.69c-2.33,1.9,59.46,40.07,64.49,40.07s7.79-66.45,7.79-66.45c0,0,.07-94.4,0-100.26-.07-5.85-33.95,39.64-33.95,39.64Z"/>
        <polygon class="cls-5" points="518.75 300.93 495.43 318.42 500.09 405.85 645.82 401.19 631.83 288.11 518.75 300.93"/>
        <path class="cls-8" d="m662.14,497.95l-166.71-33.81-17.49,37.31,23.32,82.77,69.36,17.49s135.81-29.14,136.84-29.14,33.95-51.29,33.95-51.29c0,0-72.28-24.48-79.27-23.32Z"/>
        <path class="cls-8" d="m834.68,429.73l-75.78-111.32s-9.7,23.32-12.03,30.31c-2.33,6.99.12,122.99-1.05,126.48-1.17,3.5,84.2,15.74,84.2,15.74l25.65-36.14s-16.32-23.32-20.98-25.08Z"/>
        <path class="cls-5" d="m758.9,519.74c3.5-1.17,85.1.37,85.1.37l11.66-51.31-108.42-18.65s8.16,70.75,11.66,69.59Z"/>
        <path class="cls-5" d="m758.9,318.42c1.17,4.66,0,111.32,0,111.32l96.76,25.08-8.16-107.84-88.6-28.56Z"/>
        <path class="cls-5" d="m876.94,435.58l94.43,14.57c.87-4.95,6.99-45.47,6.99-45.47l-110.17-12.82,8.74,43.72Z"/>
        <polygon class="cls-14" points="645.82 288.11 643.34 325.41 657.06 404.69 690.12 373.21 701.78 318.42 678.46 312.59 645.82 288.11"/>
        <polygon class="cls-12" points="935.52 450.15 941.58 499.68 967.87 495.62 967.87 457.43 950.38 435.58 935.52 450.15"/>
        <path class="cls-5" d="m960.87,439.94l-10.49,28.74,7.87,22.27,95.3-1.17,10.93-39.64c.44-4.95-5.68-20.42-5.68-20.42l-97.93,10.21Z"/>
        <polygon class="cls-8" points="944.78 442.22 935.52 435.24 876.46 426.99 868.19 391.86 869.93 445.64 868.19 464.14 876.06 489.79 950.38 499.41 941.64 472.3 944.78 442.22"/>
        <polygon class="cls-12" points="1058.8 429.73 1049.18 464.14 1061.2 485.13 1079.78 468.81 1073.23 437.33 1058.8 429.73"/>
        <polygon class="cls-8" points="950.38 468.69 962.06 497.05 1061.2 485.13 1049.18 464.14 950.38 468.69"/>
        <path class="cls-5" d="m709.94,325.41s-38.47,33.81-36.14,37.31c2.33,3.5-2.54,40.8-.1,43.13,2.43,2.33,66.55,27.98,67.72,23.32,1.17-4.66,0-100.26,0-100.26l-31.48-3.5Z"/>
        <path class="cls-5" d="m1203.06,370.01c-31.48-12.24-97.05,16.98-97.05,16.98,0,0-11.21,32.12-9.62,42.75l101.88,5.85,24.9-23.58s11.37-29.76-20.11-42Z"/>
        <path class="cls-8" d="m1096.82,421.01c-77.44,51.73,22.31,10.03,22.31,10.03l32.71,9.31,46.43-4.77,24.9-23.58s-48.92-42.72-126.36,9Z"/>
        <path class="cls-5" d="m1159.35,416.35c-35.85-8.74-87.43,9.62-90.06,8.16-2.62-1.46-10.49,39.64-10.49,39.64l10.49,35.54.87,7.35,126.78-42.88,6.12-22.44s-7.87-16.61-43.72-25.36Z"/>
        <polygon class="cls-12" points="929.4 489.79 920.65 517.89 941.64 537.59 950.38 499.41 941.64 481.05 929.4 489.79"/>
        <path class="cls-8" d="m966.12,490.96c-3.5,3.21-24.48,18.36-24.48,18.36l8.74,23.69,78.69-5.95,4.37-31.43-20.11-14.57-47.21,9.91Z"/>
        <polygon class="cls-8" points="890.92 490.96 868.19 507.28 863.82 544 928.52 544 941.64 537.59 925.9 495.62 890.92 490.96"/>
        <polygon class="cls-5" points="868.19 507.28 930.27 507.28 941.64 481.05 868.19 472.3 868.19 507.28"/>
        <path class="cls-8" d="m1058.8,464.14l9.29,31.48,11.69,8.15,117.16-39.63c-45.13-41.14-138.15,0-138.15,0Z"/>
        <polygon class="cls-12" points="1002.84 481.05 1011.58 499.68 1029.07 527.05 1036.94 485.13 1022.95 472.3 1002.84 481.05"/>
        <path class="cls-5" d="m1079.78,468.81c-30.6,1.75-46.34,3.5-46.34,3.5l-6.12,27.38,13.12,27.38c2.62-2.29,59.46-14.76,59.46-14.76l19.24-27.16s-8.74-18.08-39.35-16.33Z"/>
        <path class="cls-5" d="m941.64,509.32l73.44-2.04,7.87-34.97-72.57,8.74s-9.62,25.36-8.74,28.27Z"/>
        <path class="cls-5" d="m636.49,424.51c-3.5,0-107.25,11.66-111.92,12.82-4.66,1.17-25.65,23.32-29.14,26.81,0,0,29.14,73.44,32.64,73.44s213.34-16.32,213.34-16.32c0,0-11.66-69.95-16.32-76.94-4.66-6.99-85.1-19.82-88.6-19.82Z"/>
        <polygon class="cls-5" points="982.27 450.15 1085.03 424.51 1096.4 386.98 987.54 404.69 982.27 450.15"/>
        <path class="cls-5" d="m868.19,464.14c1.75-1.46,73.44,8.16,73.44,8.16l8.74-36.72-82.19-5.85v34.41Z"/>
        <polygon class="cls-5" points="645.82 288.11 669.13 348.73 701.78 318.42 694.78 302.1 645.82 288.11"/>
        <path class="cls-5" d="m1110.38,356.02c-37.6,2.62-51.59,7.87-51.59,7.87v37.41l101.91-23.72s-12.73-24.18-50.32-21.56Z"/>
        <polygon class="cls-5" points="951.69 412 1049.18 405.85 1053.55 367.01 961.75 367.01 951.69 412"/>
        <polygon class="cls-5" points="874.31 401.29 947.42 406 950.38 360.39 868.19 355.82 874.31 401.29"/>
        <path class="cls-8" d="m1049.18,493.85l-21.86,5.83,13.12,27.38,59.46-14.76-8-12.62c-8-12.62-42.71-5.83-42.71-5.83Z"/>
        <polygon class="cls-8" points="446.48 581.44 288.56 738.15 436.59 738.15 515.25 637.85 446.48 581.44"/>
      </g>
      <g id="BM2">
        <polygon class="cls-16" points="915.44 406 902.73 412 897.98 418.06 961.75 418.06 978.36 424.51 972.76 442.33 987.13 445.36 1039.33 424.51 1042.52 406.47 998.8 399.17 915.44 406"/>
        <path class="cls-2" d="m877.54,259.47l-3.92,4.92-3.26,4.92v5.68l6.09,9.53h6.31s1.14-3.2,1.14-3.85,2.09-8,2.09-8l-2.15-12.19-6.31-1.01Z"/>
        <polygon class="cls-2" points="983.55 406.39 975.63 419.42 972.76 442.33 987.13 445.36 998.8 428.35 995.98 411.74 983.55 406.39"/>
        <polygon class="cls-5" points="872.82 261.13 885.94 266.31 887.09 262.4 874.25 256.47 872.82 261.13"/>
        <polygon class="cls-2" points="914.21 400.92 894.05 407.99 897.98 418.06 916.51 418.06 930.19 415.03 928.5 400.79 914.21 400.92"/>
        <polygon class="cls-2" points="965.51 94.71 916.69 106.55 901.79 116.43 892.23 189.16 870.36 257.38 888.31 264.56 907.57 208.42 912.43 188.19 918.85 211.91 915.46 252.29 920.78 252.16 906.18 320.6 906.54 399.31 933.66 403.3 935.17 333.35 953.55 288.93 963.49 349.25 972.76 412.36 1000.13 414.15 998.02 262.04 998.09 245.25 989.41 152.26 1020.63 167.64 1024.85 219.68 1043.33 213.77 1041.12 146.78 965.51 94.71"/>
        <g>
          <path class="cls-10" d="m1063.97,223.4c-1.4-.89-86.43,24.3-86.43,24.3l-1.6,68.95s18.4,11.51,20.1,11.47c1.71-.04,83.94-32.57,83.94-32.57,0,0,5.33-61.26,5.17-63.29-.03-.45-19.79-7.97-21.19-8.86Z"/>
          <path class="cls-9" d="m994.71,256.23c.22-.27-8.73-6.15-13.94-9.46-2.09.62-3.29.97-3.29.97l-1.6,68.95s16.87,10.55,19.8,11.41c-.17-9.52-1.25-71.51-.97-71.87Z"/>
          <path class="cls-3" d="m977.3,247.08l16.5,12.51,55.56,25.44,34.83-52.36c-2.92-2.35-19.76-7.03-21.04-7.84-1.37-.87-82.92,21.38-85.85,22.25Z"/>
          <polygon class="cls-3" points="1034.54 277.14 1035.37 288.87 1037.67 291.05 1054.55 285.68 1056.43 274.08 1054.75 272 1034.54 277.14"/>
          <path class="cls-7" d="m977.39,247.05l14.8,11.23,57.75,24.68,33.66-50.94c-2.92-2.34-18.6-8.42-19.88-9.24-1.37-.87-83.41,23.41-86.34,24.27Z"/>
          <path class="cls-11" d="m1063.73,222.78c-1.4-.89-86.43,24.3-86.43,24.3l1.88,1.5,14.9,11.09s84.77-25.22,91.07-27.13c0-.1.01-.19.02-.28l-15.93-7.57c-2.86-.92-5.07-1.63-5.51-1.91Z"/>
          <polygon class="cls-5" points="1036.65 277.53 1037.5 289.28 1039.8 291.47 1056.72 286.1 1058.6 274.47 1056.91 272.39 1036.65 277.53"/>
          <path class="cls-15" d="m1039.75,291.42l.05.05,16.92-5.37.94-11.16c-4.69,1.11-16.58,4.9-16.58,4.9l-1.33,11.58Z"/>
        </g>
        <g>
          <g>
            <path class="cls-9" d="m1043.89,230.32l-1.22.66-.57-.35.33,5.68,3.02,2.05s.3-6.56-.19-7.18c-.49-.61-1.36-.87-1.36-.87Z"/>
            <path class="cls-7" d="m1044.15,224.92c-1.46,0-12.34,2.35-12.34,2.35l10.29,3.37.57.35,1.22-.66s.87.25,1.36.87c.49.61.19,7.18.19,7.18l2.67-1.3-.08-7.16s-.59-5.01-3.88-4.99Z"/>
            <path class="cls-9" d="m1044.15,224.92c-.51,0-2.18.29-4.14.67l-3.33,3.28.38.12c2.03-.65,7.68-2.43,9.47-2.89-.57-.68-1.34-1.18-2.38-1.18Z"/>
          </g>
          <polygon class="cls-2" points="1036.99 214.67 1029.92 220.09 1023.54 230.6 1026.36 241.07 1043.73 234.17 1041.09 219.75 1036.99 214.67"/>
          <path class="cls-9" d="m1027.37,229.97l-2.14-.96s-6.57,1.63-7.45,3.11c-.88,1.47-.59,9.68-.59,9.68l2.27,3.48s4.3.11,4.09-1.73c-.21-1.84.21-6.78,1.16-7.11.95-.33,4.01-1.17,4.01-1.17l-.33-4.36-1.01-.93Z"/>
          <path class="cls-7" d="m1021.34,233.49c-.91,1.73-1.62,9.6-1.81,11.78.59,0,4.2-.04,4-1.73-.21-1.84.21-6.78,1.16-7.11.95-.33,4.01-1.17,4.01-1.17l-.32-4.16c-2.52.29-6.34,1.03-7.05,2.39Z"/>
        </g>
        <polygon class="cls-5" points="1025.97 222.97 1042.63 217.68 1042.63 213.28 1025.97 218.61 1025.97 222.97"/>
        <polygon class="cls-2" points="915.44 89.8 918.67 123.46 938.29 146.23 953.39 106.67 940.28 78.53 915.44 89.8"/>
        <path class="cls-2" d="m958.81,13.33c-6.11-3.8-31.59-13.33-31.59-13.33,0,0-8.18,10.98-13.14,15.65-8.69,8.18-12.93,22.74-15.92,29.49-5.4,12.2-8.27,26.25-6.77,33.84,1.26,6.35,8.38,8.51,17.68,14.3,18.59,11.57,44.8,3.05,58.53-19.03,13.74-22.08,9.8-49.35-8.79-60.92Z"/>
        <polygon class="cls-5" points="923.19 112.99 917.59 106.46 916.84 104.36 915.44 105.7 915.44 110.89 915.6 120.81 917.71 118.47 923.94 162.97 943.16 115.46 953.55 98.86 948.49 94.71 923.19 112.99"/>
        <polygon class="cls-4" points="918.85 117.65 920.82 122.97 929.05 122.85 930.85 117.16 923.19 112.99 918.85 117.65"/>
        <polygon class="cls-4" points="920.73 123.83 919.84 135.06 923.31 167.45 933.66 139.34 928.97 123.63 920.73 123.83"/>
      </g>
    </g>
  </g>
</svg>